<svg width="794" height="795" viewBox="0 0 794 795" fill="none" xmlns="http://www.w3.org/2000/svg">
<path d="M396.8 794.09C615.947 794.09 793.6 616.437 793.6 397.29C793.6 178.143 615.947 0.48999 396.8 0.48999C177.653 0.48999 0 178.143 0 397.29C0 616.437 177.653 794.09 396.8 794.09Z" fill="white"/>
<path d="M396.8 752.33C592.883 752.33 751.84 593.373 751.84 397.29C751.84 201.207 592.883 42.25 396.8 42.25C200.717 42.25 41.76 201.207 41.76 397.29C41.76 593.373 200.717 752.33 396.8 752.33Z" stroke="#2E3192" stroke-width="8" stroke-miterlimit="10"/>
<path d="M256.88 456.57L298.09 452.57C301.543 486.623 317.157 510.887 344.93 525.36L355.93 529.8L368.32 533.26L381.15 535.26L395.57 536C409.83 536.667 424.243 533.953 438.81 527.86C464.63 517 477.54 499.233 477.54 474.56C477.54 451.36 464.63 434.333 438.81 423.48C433.397 421.18 414.253 415.587 381.38 406.7C350.627 398.293 328.943 390.487 316.33 383.28C285.097 365.18 269.483 338.94 269.49 304.56C269.49 263.6 287.957 234.567 324.89 217.46C342.89 209.073 363.16 204.877 385.7 204.87C437.953 204.87 473.913 221.897 493.58 255.95C499.414 266.178 503.879 277.129 506.86 288.52C508.435 294.747 509.416 301.108 509.79 307.52V312.95L467.9 316.41C463.233 270.177 436.433 247.063 387.5 247.07C367.5 247.07 350.91 250.607 337.73 257.68C320.31 267.06 311.6 281.62 311.6 301.36C311.6 319.78 321.133 333.843 340.2 343.55C348.16 347.503 364.903 352.603 390.43 358.85C425.71 367.57 450.043 375.383 463.43 382.29C491.95 396.77 509.517 417.17 516.13 443.49C518.442 452.354 519.651 461.47 519.73 470.63C519.73 491.363 514.323 510.117 503.51 526.89C493.084 542.901 478.505 555.779 461.33 564.15C441.957 574.023 420.71 578.96 397.59 578.96C338.923 578.96 298.01 559.877 274.85 521.71C262.934 502.084 256.712 479.53 256.88 456.57V456.57Z" fill="#2E3192"/>
<path d="M377.91 349.27C381.117 369.617 384.33 389.95 387.55 410.27L432.55 427.94L464.68 378.14L377.91 349.27Z" fill="white"/>
<path d="M286.33 260.92L371.33 398.09L342.57 403.89L260.33 260.09L286.33 260.92Z" fill="white"/>
<path d="M289.33 214.09C277.05 226.48 301.95 281.09 321.33 280.09C329.88 279.63 336.47 268.39 340.96 257.7L321.68 217.54C304.15 210.09 293.88 209.49 289.33 214.09Z" fill="white"/>
<path d="M472.69 227.18C465.197 241.64 457.7 256.1 450.2 270.56C460.51 315.32 485.28 342.16 503.2 339.63C521.58 337.05 537.92 302.85 530.51 273.77C524.2 248.99 501.18 230.09 472.69 227.18Z" fill="white"/>
<path d="M430.92 522.77V590.24L358.63 585.42V519.56L430.92 522.77Z" fill="white"/>
<path d="M372.53 611.34V427.81L230.84 178.81H284.33C322.33 248.33 360.33 317.85 398.33 387.37H399.62L515.5 178.81H569.03L419.03 427.16V611.33L372.53 611.34Z" fill="#2E3192"/>
<path d="M199.86 193.41L203.07 479.54C203.07 583.67 308.92 639.86 393.51 639.86C487.51 639.86 593.34 582.29 593.34 479.54V193.41H630.34V453.41C630.34 596.15 527.91 665.76 390.7 665.76C261 665.76 163.27 600.28 163.27 456.17V193.41H199.86Z" fill="#2E3192"/>
</svg>
